<svg xmlns="http://www.w3.org/2000/svg" id="Layer_3" data-name="Layer 3" viewBox="104 262.98 511.99 194.03" fill="#000">
  <g>
    <path d="M159.68,456.5c-4.96,0-10.11-5.36-20.39-16.04-3.82-3.97-8.56-8.89-14.23-14.5v-111.81s-20.35-20.35-20.35-20.35c5.68-5.61,10.42-10.54,14.24-14.51,10.13-10.53,15.21-15.82,20.14-15.82s10.11,5.36,20.39,16.03c3.82,3.97,8.56,8.9,14.23,14.5v111.81l20.35,20.35c-5.68,5.61-10.42,10.54-14.24,14.51-10.13,10.53-15.21,15.82-20.14,15.82h0Z"/>
    <path d="M139.09,263.98c4.74,0,9.85,5.31,20.03,15.88,3.79,3.93,8.48,8.81,14.09,14.36v111.81l.29.29,19.85,19.85c-5.53,5.47-10.15,10.27-13.89,14.16-10.03,10.43-15.06,15.67-19.78,15.67s-9.85-5.31-20.02-15.88c-3.79-3.93-8.48-8.81-14.09-14.36v-111.81l-.29-.29-19.85-19.85c5.53-5.47,10.15-10.27,13.89-14.16,10.03-10.43,15.06-15.67,19.78-15.67M139.09,262.98c-7.15,0-14.26,10.3-35.09,30.82l20.56,20.56v111.81h0c20.82,20.57,27.98,30.82,35.11,30.82s14.26-10.3,35.09-30.82l-20.56-20.56v-111.81c-20.82-20.57-27.98-30.82-35.11-30.82h0Z"/>
  </g>
  <g>
    <path d="M229.88,456.51c-4.96,0-10.11-5.36-20.39-16.04-3.82-3.97-8.56-8.89-14.23-14.5v-111.81s-20.35-20.35-20.35-20.35c5.68-5.61,10.42-10.54,14.24-14.51,10.13-10.53,15.21-15.82,20.14-15.82s10.11,5.36,20.39,16.03c3.82,3.97,8.56,8.9,14.23,14.5v111.81l20.35,20.35c-5.68,5.61-10.42,10.54-14.24,14.51-10.13,10.53-15.21,15.82-20.14,15.82h0Z"/>
    <path d="M209.29,263.98c4.74,0,9.85,5.31,20.03,15.88,3.79,3.93,8.48,8.81,14.09,14.36v111.81l.29.29,19.85,19.85c-5.53,5.47-10.15,10.27-13.89,14.16-10.03,10.43-15.06,15.67-19.78,15.67s-9.85-5.31-20.03-15.88c-3.79-3.93-8.48-8.81-14.09-14.36v-111.81l-.29-.29-19.85-19.85c5.53-5.47,10.15-10.27,13.89-14.16,10.03-10.43,15.06-15.67,19.78-15.67M209.29,262.98c-7.15,0-14.26,10.3-35.09,30.82l20.56,20.56v111.81h0c20.82,20.57,27.98,30.82,35.11,30.82s14.26-10.3,35.09-30.82l-20.56-20.56v-111.81c-20.82-20.57-27.98-30.82-35.11-30.82h0Z"/>
  </g>
  <g>
    <path d="M300.08,456.5c-4.96,0-10.11-5.36-20.39-16.03-3.82-3.97-8.56-8.9-14.23-14.5v-111.81s-20.35-20.35-20.35-20.35c5.68-5.61,10.42-10.54,14.24-14.51,10.13-10.53,15.21-15.82,20.14-15.82s10.11,5.36,20.39,16.03c3.82,3.97,8.56,8.9,14.23,14.5v107.69c0,2.66,1.04,5.16,2.92,7.04l.83.83c1.88,1.88,4.38,2.92,7.04,2.92s5.16-1.04,7.04-2.92l.83-.83c1.88-1.88,2.92-4.38,2.92-7.04v-87.54l-20.35-20.35c5.68-5.61,10.41-10.53,14.22-14.5,10.14-10.54,15.22-15.83,20.16-15.83,2.75,0,5.63,1.61,9.96,5.56,2.84,2.59,6.19,6.07,10.43,10.48,3.82,3.97,8.56,8.89,14.23,14.5v131.96c-6.92,6.63-12.26,12.29-16.56,16.83-8.33,8.81-12.92,13.66-17.63,13.66-5.45,0-11.47-6.23-24.67-19.88l-.64-.66-.36.37c-1.5,1.55-2.9,3.01-4.22,4.38-10.13,10.53-15.21,15.82-20.14,15.82Z"/>
    <path d="M279.49,262.98v1c4.75,0,9.85,5.31,20.03,15.88,3.79,3.93,8.48,8.81,14.09,14.36v107.48c0,2.79,1.09,5.42,3.06,7.39l.83.83c1.97,1.97,4.6,3.06,7.39,3.06s5.42-1.09,7.39-3.06l.83-.83c1.97-1.97,3.06-4.6,3.06-7.39v-87.75l-.29-.29-19.85-19.85c5.52-5.47,10.14-10.26,13.88-14.15,10.04-10.44,15.07-15.67,19.79-15.67,2.61,0,5.4,1.57,9.62,5.43,2.83,2.58,6.18,6.06,10.41,10.46,3.79,3.93,8.48,8.81,14.09,14.36v131.53c-6.85,6.58-12.15,12.19-16.43,16.7-8.24,8.71-12.77,13.51-17.27,13.51-5.24,0-11.61-6.59-24.31-19.72l-.28-.29-.72-.74-.72.74c-1.5,1.55-2.91,3.01-4.23,4.38-10.03,10.43-15.06,15.67-19.78,15.67s-9.85-5.31-20.03-15.88c-3.79-3.93-8.48-8.81-14.09-14.36v-111.81l-.29-.29-19.85-19.85c5.53-5.47,10.15-10.28,13.89-14.17,10.03-10.43,15.06-15.66,19.78-15.66v-1M279.5,262.98c-7.15,0-14.26,10.3-35.09,30.82l20.56,20.56v111.81h0c20.82,20.57,27.98,30.82,35.11,30.82,5.81,0,11.59-6.8,24.73-20.35,13.41,13.87,19.61,20.32,25.31,20.32,7.44,0,14.03-10.98,34.7-30.78h0v-132.38c-11.88-11.73-19.3-20.1-24.82-25.13-4.16-3.79-7.23-5.69-10.29-5.69-7.15,0-14.27,10.29-35.09,30.82l20.56,20.56v87.34c0,2.51-1,4.91-2.77,6.69l-.83.83c-1.85,1.85-4.27,2.77-6.69,2.77s-4.84-.92-6.69-2.77l-.83-.83c-1.77-1.77-2.77-4.18-2.77-6.69v-107.9c-20.82-20.57-27.98-30.82-35.11-30.82h0Z"/>
  </g>
  <g>
    <path d="M440.49,456.5c-4.96,0-10.11-5.36-20.39-16.04-3.82-3.97-8.56-8.89-14.23-14.5v-111.81s-20.35-20.35-20.35-20.35c5.68-5.61,10.42-10.54,14.24-14.51,10.13-10.53,15.21-15.82,20.14-15.82s10.11,5.36,20.38,16.03c3.82,3.97,8.56,8.9,14.23,14.5v111.81l20.35,20.35c-5.68,5.61-10.42,10.54-14.24,14.51-10.13,10.53-15.21,15.82-20.14,15.82h0Z"/>
    <path d="M419.91,263.98c4.74,0,9.85,5.31,20.03,15.88,3.79,3.93,8.48,8.81,14.09,14.36v111.81l.29.29,19.85,19.85c-5.53,5.47-10.15,10.27-13.89,14.16-10.03,10.43-15.06,15.67-19.78,15.67s-9.85-5.31-20.03-15.88c-3.79-3.93-8.48-8.81-14.09-14.36v-111.81l-.29-.29-19.85-19.85c5.53-5.47,10.15-10.27,13.89-14.16,10.03-10.43,15.06-15.67,19.78-15.67M419.91,262.98c-7.15,0-14.26,10.3-35.09,30.82l20.56,20.56v111.81h0c20.82,20.57,27.98,30.82,35.11,30.82s14.26-10.3,35.09-30.82l-20.56-20.56v-111.81c-20.82-20.57-27.98-30.82-35.11-30.82h0Z"/>
  </g>
  <g>
    <path d="M510.7,456.5c-4.96,0-10.11-5.36-20.39-16.04-3.82-3.97-8.56-8.89-14.23-14.5v-111.81l-20.35-20.35c5.68-5.61,10.42-10.54,14.24-14.51,10.13-10.53,15.21-15.82,20.14-15.82s10.11,5.36,20.39,16.03c3.82,3.97,8.56,8.9,14.23,14.5v111.81l20.35,20.35c-5.68,5.61-10.42,10.54-14.24,14.51-10.13,10.53-15.21,15.82-20.14,15.82h0Z"/>
    <path d="M490.11,263.98c4.74,0,9.85,5.31,20.03,15.88,3.79,3.93,8.48,8.81,14.09,14.36v111.81l.29.29,19.85,19.85c-5.53,5.47-10.15,10.27-13.89,14.16-10.03,10.43-15.06,15.67-19.78,15.67s-9.85-5.31-20.03-15.88c-3.79-3.93-8.48-8.81-14.09-14.36v-111.81l-.29-.29-19.85-19.85c5.53-5.47,10.15-10.27,13.89-14.16,10.03-10.43,15.06-15.67,19.78-15.67M490.11,262.98c-7.15,0-14.26,10.3-35.09,30.82l20.56,20.56v111.81h0c20.82,20.57,27.98,30.82,35.11,30.82s14.26-10.3,35.09-30.82l-20.56-20.56v-111.81c-20.82-20.57-27.98-30.82-35.11-30.82h0Z"/>
  </g>
  <g>
    <path d="M580.91,456.52c-4.96,0-10.11-5.36-20.39-16.04-3.82-3.97-8.56-8.89-14.23-14.5v-111.81l-20.35-20.35c5.68-5.61,10.42-10.54,14.24-14.51,10.13-10.53,15.21-15.82,20.14-15.82s10.11,5.36,20.39,16.03c3.82,3.97,8.56,8.9,14.23,14.5v111.81l20.35,20.35c-5.68,5.61-10.42,10.54-14.24,14.51-10.13,10.53-15.21,15.82-20.14,15.82h0Z"/>
    <path d="M560.32,264c4.74,0,9.85,5.31,20.03,15.88,3.79,3.93,8.48,8.81,14.09,14.36v111.81l.29.29,19.85,19.85c-5.53,5.47-10.15,10.27-13.89,14.16-10.03,10.43-15.06,15.67-19.78,15.67s-9.85-5.31-20.03-15.88c-3.79-3.93-8.48-8.81-14.09-14.36v-111.81l-.29-.29-19.85-19.85c5.53-5.47,10.15-10.27,13.89-14.16,10.03-10.43,15.06-15.67,19.78-15.67M560.32,263c-7.15,0-14.26,10.3-35.09,30.82l20.56,20.56v111.81h0c20.82,20.57,27.98,30.82,35.11,30.82s14.26-10.3,35.09-30.82l-20.56-20.56v-111.81c-20.82-20.57-27.98-30.82-35.11-30.82h0Z"/>
  </g>
</svg>